<?xml version="1.0" standalone="no"?>
<!DOCTYPE svg PUBLIC "-//W3C//DTD SVG 1.1//EN" "http://www.w3.org/Graphics/SVG/1.1/DTD/svg11.dtd">
<svg width="100%" height="100%" viewBox="0 0 144 144" version="1.1" xmlns="http://www.w3.org/2000/svg" xmlns:xlink="http://www.w3.org/1999/xlink" xml:space="preserve" style="fill-rule:evenodd;clip-rule:evenodd;stroke-linejoin:round;stroke-miterlimit:1.41421;">
    <g id="Layer1" transform="matrix(2.25,0,0,2.25,0,0)">
        <g transform="matrix(1.19782,0,0,1.19782,-39.7289,-412.637)">
            <path d="M43.435,345.753C43.017,346.753 43.109,347.519 43.109,348.864C43.109,351.861 45.781,354.237 48.943,354.698C51.083,355.01 53.306,355.226 55.558,355.343C54.607,356.163 54.014,357.351 54.014,359.241C54.014,361.192 54.728,363.443 55.852,365.12C56.976,366.797 58.431,367.826 59.851,367.826C61.272,367.826 62.726,366.798 63.851,365.12C64.975,363.443 65.689,361.191 65.689,359.241C65.689,357.333 65.085,356.139 64.121,355.318C66.236,355.197 68.323,354.99 70.337,354.697C73.499,354.237 76.05,352.064 76.171,348.863C76.212,347.784 75.989,346.783 75.846,345.752C75.52,348.828 72.938,350.823 69.818,351.264C63.175,352.201 56.106,352.201 49.464,351.264C46.343,350.824 43.761,348.829 43.435,345.753Z" style="fill:black;fill-rule:nonzero;"/>
        </g>
        <g transform="matrix(1.19782,0,0,1.19782,-39.7289,-412.637)">
            <path d="M52.29,356.776C24.661,357.577 30.021,378.341 49.835,383.692C54.365,379.313 49.107,372.378 44.982,377.362C42.404,372.536 42.688,368.175 45.481,366.815C50.889,369.819 54.756,376.64 55.041,383.287C51.312,385.856 48.423,390.283 48.423,390.283L51.348,394.587L46.763,397.195L55.877,397.195C51.38,392.697 54.571,387.639 59.898,387.639C65.296,387.639 68.125,392.991 63.92,397.195L72.942,397.195L68.45,394.587L71.374,390.283C71.374,390.283 68.437,385.787 64.666,383.227C64.972,376.599 68.831,369.81 74.223,366.815C77.017,368.176 77.299,372.537 74.723,377.362C70.598,372.378 65.34,379.313 69.869,383.692C89.681,378.341 95.041,357.578 67.413,356.776C67.642,357.523 67.765,358.349 67.765,359.242C67.765,361.678 66.941,364.24 65.576,366.276C64.212,368.313 62.227,369.901 59.853,369.901C57.479,369.901 55.495,368.313 54.129,366.276C52.766,364.239 51.941,361.678 51.941,359.242C51.94,358.349 52.063,357.523 52.29,356.776Z" style="fill:black;fill-rule:nonzero;"/>
        </g>
        <g transform="matrix(1.19782,0,0,1.19782,-39.7289,-412.637)">
            <path d="M64.665,383.227C64.971,376.599 68.83,369.81 74.222,366.815C77.016,368.176 77.298,372.537 74.722,377.362C70.597,372.378 65.339,379.313 69.868,383.692C89.68,378.341 95.04,357.578 67.412,356.776C67.641,357.523 67.764,358.349 67.764,359.242C67.764,361.678 66.94,364.24 65.575,366.276C64.211,368.313 62.226,369.901 59.852,369.901C57.478,369.901 55.494,368.313 54.128,366.276C52.765,364.239 51.94,361.678 51.94,359.242C51.94,358.349 52.063,357.523 52.29,356.776C24.661,357.577 30.021,378.341 49.835,383.692C54.365,379.313 49.107,372.378 44.982,377.362C42.404,372.536 42.688,368.175 45.481,366.815C50.889,369.819 54.756,376.64 55.041,383.287" style="fill:black;fill-rule:nonzero;"/>
        </g>
    </g>
</svg>
